<?xml version="1.0" standalone="no"?>
<!DOCTYPE svg PUBLIC "-//W3C//DTD SVG 20010904//EN"
 "http://www.w3.org/TR/2001/REC-SVG-20010904/DTD/svg10.dtd">
<svg version="1.0" xmlns="http://www.w3.org/2000/svg"
 width="432.000000pt" height="310.000000pt" viewBox="0 0 432.000000 310.000000"
 preserveAspectRatio="xMidYMid meet">

<g transform="translate(0.000000,310.000000) scale(0.100000,-0.100000)"
fill="#D7B56D" stroke="none">
<path d="M1955 3093 c-54 -14 -95 -66 -95 -122 0 -37 49 -81 91 -81 31 0 95
27 86 37 -3 3 -16 -2 -29 -11 -31 -22 -68 -21 -68 2 0 9 10 51 23 92 16 52 28
76 40 78 27 5 47 -17 48 -52 0 -26 2 -27 8 -11 4 11 11 31 14 45 6 24 4 25
-46 26 -29 1 -61 -1 -72 -3z"/>
<path d="M2205 3093 c-69 -19 -112 -96 -89 -158 8 -21 56 -45 89 -45 100 0
174 120 111 179 -24 22 -76 34 -111 24z m65 -10 c0 -24 -57 -176 -68 -180 -29
-12 -26 9 20 135 11 29 26 52 34 52 8 0 14 -3 14 -7z"/>
<path d="M2437 3084 c15 -7 -48 -160 -74 -180 -16 -12 -13 -13 27 -13 35 0 41
2 28 10 -23 13 -23 24 7 95 l24 59 1 -82 c0 -75 2 -83 19 -83 11 0 43 28 77
69 33 38 60 68 61 67 7 -7 -55 -136 -67 -139 -8 -3 8 -5 35 -6 28 -1 61 -4 75
-7 18 -4 21 -3 11 4 -11 8 -8 25 20 96 19 47 41 87 49 90 8 2 -11 4 -42 5 -56
1 -57 1 -99 -49 -23 -27 -46 -50 -51 -50 -4 0 -8 24 -8 54 l0 53 -37 7 c-44 7
-74 7 -56 0z"/>
<path d="M2800 3051 c12 -8 9 -22 -25 -90 -23 -48 -45 -81 -55 -82 -22 -1 37
-16 89 -22 25 -3 40 -2 33 2 -18 11 16 93 37 89 9 -2 18 -14 19 -27 3 -21 6
-19 23 19 24 53 24 54 -3 36 -39 -28 -50 -20 -30 22 9 20 22 40 27 44 6 4 -6
8 -26 8 -20 0 -52 3 -70 6 -25 4 -30 3 -19 -5z"/>
<path d="M2948 3024 c12 -8 22 -25 22 -37 0 -27 16 -11 25 26 7 26 6 27 -31
27 -38 0 -38 0 -16 -16z"/>
<path d="M1446 3014 c-128 -31 -275 -140 -369 -274 -12 -17 -48 -28 -188 -56
-391 -78 -788 -214 -848 -290 -32 -41 -25 -105 18 -168 56 -82 135 -115 224
-96 29 6 101 34 161 62 106 49 212 89 324 122 l54 15 -23 -37 c-30 -51 -198
-349 -251 -446 l-43 -80 -105 -31 c-58 -17 -119 -39 -136 -48 -70 -37 -143
-156 -152 -249 -4 -44 -3 -47 21 -53 18 -5 44 2 84 20 71 33 133 56 133 49 0
-3 -25 -62 -56 -132 -132 -299 -278 -707 -289 -810 -12 -110 32 -190 153 -282
74 -55 117 -69 162 -50 40 17 54 41 89 161 76 263 248 736 358 989 30 69 64
146 75 173 l21 47 71 0 c128 0 335 -30 495 -72 86 -22 172 -41 190 -42 32 -1
36 2 43 34 11 45 1 142 -19 192 -47 119 -219 178 -514 178 l-120 0 48 91 c26
50 102 181 169 292 l120 202 65 7 c136 15 684 21 850 9 434 -31 867 -106 1247
-215 l152 -43 -8 26 c-13 47 -6 117 18 166 28 58 92 102 164 111 l50 7 -53 23
c-260 115 -686 218 -1093 264 -312 36 -856 43 -1082 15 -31 -4 -56 -4 -56 0 0
4 16 29 35 55 19 26 42 65 51 85 13 33 13 39 0 60 -25 37 -129 46 -240 19z"/>
<path d="M3093 2995 c-38 -16 -73 -68 -73 -107 0 -17 11 -35 32 -53 28 -24 38
-27 87 -23 47 4 59 10 88 41 49 54 43 111 -17 142 -36 19 -75 19 -117 0z m67
-90 c-39 -71 -62 -96 -77 -82 -6 7 75 159 91 169 30 20 24 -18 -14 -87z"/>
<path d="M3365 2950 c9 -15 -84 -160 -104 -161 -12 -1 78 -27 99 -29 3 0 16
20 30 45 14 25 28 45 32 45 17 0 18 -22 2 -49 -9 -16 -14 -36 -11 -45 8 -21
53 -31 82 -18 19 9 23 17 21 52 -2 36 1 43 21 51 26 10 32 49 10 68 -12 9
-156 50 -180 51 -5 0 -5 -5 -2 -10z m122 -36 c4 -13 -44 -70 -53 -62 -9 10 28
79 40 75 5 -2 11 -7 13 -13z m23 -154 c0 -5 -5 -10 -11 -10 -5 0 -7 5 -4 10 3
6 8 10 11 10 2 0 4 -4 4 -10z"/>
<path d="M3636 2855 c-19 -29 -15 -31 19 -9 13 9 31 14 40 12 12 -2 3 -20 -40
-78 -38 -50 -62 -74 -73 -72 -34 7 -5 -7 63 -31 39 -14 63 -20 54 -14 -15 9
-10 19 39 84 30 41 60 72 66 70 6 -2 13 -17 16 -32 l5 -29 18 27 c13 21 15 28
5 32 -7 2 -50 18 -96 35 -46 16 -87 30 -92 30 -4 0 -15 -11 -24 -25z"/>
<path d="M3930 2384 c-173 -75 -130 -292 75 -380 24 -11 68 -18 110 -18 57 -1
78 4 114 24 150 84 94 299 -97 370 -63 24 -153 25 -202 4z"/>
<path d="M2442 1908 c-141 -76 -599 -522 -863 -838 -34 -41 -73 -88 -86 -103
-20 -25 -43 -34 -166 -63 -231 -56 -384 -104 -412 -130 -31 -29 -33 -76 -5
-121 30 -50 55 -51 151 -2 88 44 259 113 265 107 2 -2 -13 -26 -32 -54 -81
-111 -197 -289 -210 -320 -28 -66 -6 -146 46 -174 46 -25 60 -11 140 136 81
147 197 328 274 426 41 52 50 57 103 68 56 12 265 38 271 35 1 -1 -9 -58 -22
-126 -37 -180 -58 -357 -60 -490 -1 -104 1 -119 19 -139 48 -54 184 -90 216
-57 12 11 18 65 27 243 12 233 25 342 63 539 20 101 77 301 83 293 2 -1 -1
-37 -6 -78 -14 -108 -3 -521 17 -665 42 -306 64 -355 160 -355 64 0 98 28 151
127 205 378 445 717 690 972 59 61 108 110 110 109 2 -2 -13 -45 -32 -97 -78
-206 -140 -491 -169 -773 -19 -187 -19 -251 1 -289 29 -58 189 -108 226 -71 9
9 16 83 25 250 29 591 142 972 406 1370 92 138 111 190 85 222 -23 28 -62 50
-88 50 -62 0 -326 -207 -555 -435 -317 -315 -593 -670 -728 -932 -23 -46 -45
-83 -48 -83 -10 0 -18 117 -25 345 -10 334 24 590 113 858 43 127 45 141 34
177 -9 30 -22 45 -55 65 -52 31 -62 31 -114 3z m-332 -514 c0 -3 -22 -56 -49
-117 -27 -62 -62 -149 -77 -193 l-28 -81 -86 -7 c-47 -3 -103 -9 -125 -13
l-39 -6 49 59 c221 263 355 399 355 358z"/>
</g>
</svg>
